<?xml version="1.0" encoding="UTF-8" standalone="no"?>
<!-- Created with Inkscape (http://www.inkscape.org/) -->

<svg
   xmlns:dc="http://purl.org/dc/elements/1.1/"
   xmlns:cc="http://creativecommons.org/ns#"
   xmlns:rdf="http://www.w3.org/1999/02/22-rdf-syntax-ns#"
   xmlns:svg="http://www.w3.org/2000/svg"
   xmlns="http://www.w3.org/2000/svg"
   xmlns:xlink="http://www.w3.org/1999/xlink"
   xmlns:sodipodi="http://sodipodi.sourceforge.net/DTD/sodipodi-0.dtd"
   xmlns:inkscape="http://www.inkscape.org/namespaces/inkscape"
   width="293.54721"
   height="194.0495"
   id="svg3116"
   version="1.1"
   inkscape:version="0.48.5 r10040"
   sodipodi:docname="flit_logo_nobg.svg">
  <defs
     id="defs3118">
    <linearGradient
       inkscape:collect="always"
       xlink:href="#linearGradient4432"
       id="linearGradient4452"
       gradientUnits="userSpaceOnUse"
       gradientTransform="matrix(2.0646126,0,0,2.0646126,2131.1883,-505.68517)"
       x1="294.93112"
       y1="187.01703"
       x2="536.55017"
       y2="453.6973" />
    <linearGradient
       inkscape:collect="always"
       id="linearGradient4432">
      <stop
         style="stop-color:#00c48a;stop-opacity:1"
         offset="0"
         id="stop4434" />
      <stop
         style="stop-color:#00cbff;stop-opacity:1"
         offset="1"
         id="stop4436" />
    </linearGradient>
    <linearGradient
       inkscape:collect="always"
       xlink:href="#linearGradient4432"
       id="linearGradient4460"
       gradientUnits="userSpaceOnUse"
       x1="3277.5625"
       y1="604.73828"
       x2="3786.125"
       y2="604.73828" />
    <linearGradient
       inkscape:collect="always"
       xlink:href="#linearGradient4432"
       id="linearGradient4454"
       gradientUnits="userSpaceOnUse"
       x1="3277.5625"
       y1="604.73828"
       x2="3786.125"
       y2="604.73828" />
    <linearGradient
       inkscape:collect="always"
       xlink:href="#linearGradient4432"
       id="linearGradient4456"
       gradientUnits="userSpaceOnUse"
       x1="3277.5625"
       y1="604.73828"
       x2="3786.125"
       y2="604.73828" />
    <linearGradient
       inkscape:collect="always"
       xlink:href="#linearGradient4432"
       id="linearGradient4458"
       gradientUnits="userSpaceOnUse"
       x1="3277.5625"
       y1="604.73828"
       x2="3786.125"
       y2="604.73828" />
    <linearGradient
       inkscape:collect="always"
       xlink:href="#linearGradient4432"
       id="linearGradient3991"
       gradientUnits="userSpaceOnUse"
       x1="3277.5625"
       y1="604.73828"
       x2="3786.125"
       y2="604.73828" />
  </defs>
  <sodipodi:namedview
     id="base"
     pagecolor="#ffffff"
     bordercolor="#666666"
     borderopacity="1.0"
     inkscape:pageopacity="0.0"
     inkscape:pageshadow="2"
     inkscape:zoom="1.4"
     inkscape:cx="221.08413"
     inkscape:cy="35.027636"
     inkscape:document-units="px"
     inkscape:current-layer="layer1"
     showgrid="false"
     fit-margin-top="0"
     fit-margin-left="0"
     fit-margin-right="0"
     fit-margin-bottom="0"
     inkscape:window-width="1680"
     inkscape:window-height="987"
     inkscape:window-x="1680"
     inkscape:window-y="27"
     inkscape:window-maximized="1" />
  <metadata
     id="metadata3121">
    <rdf:RDF>
      <cc:Work
         rdf:about="">
        <dc:format>image/svg+xml</dc:format>
        <dc:type
           rdf:resource="http://purl.org/dc/dcmitype/StillImage" />
        <dc:title></dc:title>
      </cc:Work>
    </rdf:RDF>
  </metadata>
  <g
     inkscape:label="Layer 1"
     inkscape:groupmode="layer"
     id="layer1"
     transform="translate(-204.65524,-306.77908)">
    <g
       transform="matrix(0.24278029,0,0,0.24278029,-425.3047,353.61591)"
       id="g4440">
      <path
         id="path4442"
         style="fill:url(#linearGradient4452);fill-opacity:1;fill-rule:evenodd;stroke:none"
         d="m 3027.3295,254.07953 c -13.7048,13.09172 -26.0357,28.06465 -37.0176,44.61328 l 0,41.02539 c 0,5.00744 1.7866,9.29826 5.3633,12.875 3.5768,3.57674 7.8695,5.36524 12.877,5.36524 5.3651,0 9.8353,-1.7885 13.4121,-5.36524 3.5767,-3.57674 5.3652,-7.86756 5.3652,-12.875 l 0,-85.63867 z m 40.2012,-35.61328 -40.2012,0 0,35.61328 c 2.8934,-2.76398 5.8436,-5.45128 8.8594,-8.04492 11.4454,-9.57254 21.8635,-18.67845 31.3418,-27.56836 z m 34.6465,-37.01953 c -9.7805,12.36045 -21.2701,24.47349 -34.6465,37.01953 l 46.7148,0 c 5.0075,0 9.2983,-1.78849 12.875,-5.36524 3.5768,-3.57674 5.3653,-7.86951 5.3653,-12.87695 0,-5.36511 -1.7885,-9.83537 -5.3653,-13.41211 -3.5767,-3.57674 -7.8675,-5.36523 -12.875,-5.36523 l -12.0683,0 z m 33.4824,-60.625 -108.3301,0 0,60.625 74.8477,0 c 14.8892,-18.81683 25.825,-38.22167 33.4824,-60.625 z m 9.5449,-37.019527 c -1.2585,5.3045 -2.516,10.94337 -3.7636,17.044917 -1.6666,6.94336 -3.5949,13.57773 -5.7813,19.97461 l 23.6523,0 c 5.0075,0 9.3003,-1.78849 12.877,-5.36524 3.5767,-3.93441 5.3652,-8.40662 5.3652,-13.41406 0,-5.007437 -1.7885,-9.298257 -5.3652,-12.874997 -3.5767,-3.57674 -7.8695,-5.36523 -12.877,-5.36523 l -14.1074,0 z m -476.3222,-177.33008 c -2.0115,-10e-4 -4.0205,0.0285 -6.0352,0.0957 -32.2353,1.07179 -39.6278,16.38542 -12.3691,36.69141 27.2586,20.30597 67.4768,42.69338 95.8925,62.71679 28.4157,20.02339 35.7846,52.54784 62.5118,70.95899 26.7272,18.41115 54.3969,37.466677 74.8691,57.441407 20.4723,19.97478 42.8139,29.80954 62.9473,12.42382 -41.9066,63.48263 12.2332,134.84987 -173.1446,298.5918 29.2843,16.0722 57.5499,-20.52973 74.8907,-31.10547 2.5476,26.72831 -25.0012,91.1355 -29.2129,135.5625 21.025,-46.6543 56.9285,-120.22794 63.457,-115.36328 9.8881,7.3681 14.1396,135.40743 24.3965,116.33203 21.0116,-25.8867 22.3263,-107.36363 34.0937,-138.89062 11.2667,-42.29933 27.605,-80.7941 49.1328,-113.23438 l 0,-196.65039 c 0,-5.007437 1.7866,-9.298257 5.3633,-12.874997 3.5768,-3.57674 7.8695,-5.36523 12.877,-5.36523 l 136.6523,0 c 15.517,-65.40122 31.2666,-72.74791 32.5215,-83.04883003 13.2678,-9.65059997 122.3748,-33.57495997 180.1094,-40.48437997 -50.3218,-5.57548 -143.4532,11.69044 -195.586,7.36328 -73.7651,-34.78206 -111.4896,10.40375 -121.4531,64.52149 -83.501,33.35098 -204.8488,-83.78957 -259.7637,-101.41602 -51.4826,-16.52477 -81.9782,-24.2477 -112.1503,-24.26562 z m 83.1191,-45.779303 c -0.8667,-0.008 -1.7091,4.6e-4 -2.5293,0.0254 -22.9645,0.69796 -27.5787,14.12698 -6.4688,35.07813 7.5478,7.490993 16.3801,15.378493 25.6504,23.388673 3.4327,1.07931 6.7052,2.08334 10.3399,3.25 54.6631,17.54562 175.142,133.67703 258.6035,101.84765 -64.3681,-33.00238 -126.9043,-104.68293 -163.5801,-122.48828 -48.6408,-23.613873 -77.7408,-35.557113 -107.6094,-39.826173 -1.9912,-0.28458 -3.988,-0.53646 -5.9921,-0.7539 -3.0061,-0.32634 -5.8141,-0.49799 -8.4141,-0.52149 z"
         inkscape:connector-curvature="0" />
      <g
         id="g4444"
         style="fill:url(#linearGradient3991);fill-opacity:1"
         transform="translate(-52.527932,-383.85797)">
        <path
           id="path4446"
           d="m 3295.8047,467.66016 c -5.0075,0 -9.3002,1.78849 -12.877,5.36523 -3.5767,3.57674 -5.3652,7.86756 -5.3652,12.875 l 0,237.67578 c 0,5.00744 1.7885,9.29826 5.3652,12.875 3.5768,3.57674 7.8695,5.36524 12.877,5.36524 l 150.7598,0 c 5.0074,0 9.2982,-1.7885 12.875,-5.36524 3.5767,-3.57674 5.3652,-7.86756 5.3652,-12.875 0,-5.36511 -1.7885,-9.83732 -5.3652,-13.41406 -3.5768,-3.57674 -7.8676,-5.36328 -12.875,-5.36328 l -131.9825,0 0,-218.89844 c 0,-5.00744 -1.7885,-9.29826 -5.3652,-12.875 -3.5767,-3.57674 -8.047,-5.36523 -13.4121,-5.36523 z"
           style="fill:url(#linearGradient4454);fill-opacity:1;fill-rule:evenodd;stroke:none"
           inkscape:connector-curvature="0" />
        <path
           id="path4448"
           d="m 3532.623,467.66016 c -5.0074,0 -9.2982,1.78849 -12.875,5.36523 -3.5767,3.57674 -5.3652,7.86756 -5.3652,12.875 l 0,237.67578 c 0,5.00744 1.7885,9.29826 5.3652,12.875 3.5768,3.57674 7.8676,5.36524 12.875,5.36524 5.3652,0 9.8374,-1.7885 13.4141,-5.36524 3.5768,-3.57674 5.3652,-7.86756 5.3652,-12.875 l 0,-237.67578 c 0,-5.00744 -1.7884,-9.29826 -5.3652,-12.875 -3.5767,-3.57674 -8.0489,-5.36523 -13.4141,-5.36523 z"
           style="fill:url(#linearGradient4456);fill-opacity:1;fill-rule:evenodd;stroke:none"
           inkscape:connector-curvature="0" />
        <path
           id="path4450"
           d="m 3617.123,467.66016 c -5.0074,0 -9.2982,1.78849 -12.875,5.36523 -3.5767,3.57674 -5.3652,7.86756 -5.3652,12.875 0,5.00744 1.7885,9.47965 5.3652,13.41406 3.5768,3.57675 7.8676,5.36524 12.875,5.36524 l 56.8711,0 0,218.89648 c 0,5.00744 1.7885,9.29826 5.3653,12.875 3.5767,3.57674 7.8695,5.36524 12.8769,5.36524 5.3651,0 9.8354,-1.7885 13.4121,-5.36524 3.5768,-3.57674 5.3653,-7.86756 5.3653,-12.875 l 0,-218.89648 56.8691,0 c 5.0075,0 9.3002,-1.78849 12.877,-5.36524 3.5767,-3.93441 5.3652,-8.40662 5.3652,-13.41406 0,-5.00744 -1.7885,-9.29826 -5.3652,-12.875 -3.5768,-3.57674 -7.8695,-5.36523 -12.877,-5.36523 l -150.7598,0 z"
           style="fill:url(#linearGradient4458);fill-opacity:1;fill-rule:evenodd;stroke:none"
           inkscape:connector-curvature="0" />
      </g>
    </g>
  </g>
</svg>
